<?xml version="1.0" encoding="UTF-8" standalone="no"?>
<!-- Generator: Adobe Illustrator 18.1.0, SVG Export Plug-In . SVG Version: 6.00 Build 0)  -->

<svg
   xmlns:dc="http://purl.org/dc/elements/1.1/"
   xmlns:cc="http://creativecommons.org/ns#"
   xmlns:rdf="http://www.w3.org/1999/02/22-rdf-syntax-ns#"
   xmlns:svg="http://www.w3.org/2000/svg"
   xmlns="http://www.w3.org/2000/svg"
   xmlns:sodipodi="http://sodipodi.sourceforge.net/DTD/sodipodi-0.dtd"
   xmlns:inkscape="http://www.inkscape.org/namespaces/inkscape"
   version="1.1"
   id="Layer_1"
   x="0px"
   y="0px"
   viewBox="0 0 608 100"
   enable-background="new 0 0 608 100"
   xml:space="preserve"
   inkscape:version="0.91 r13725"
   sodipodi:docname="bcrat-logo.svg"><metadata
   id="metadata3483"><rdf:RDF><cc:Work
       rdf:about=""><dc:format>image/svg+xml</dc:format><dc:type
         rdf:resource="http://purl.org/dc/dcmitype/StillImage" /><dc:title /></cc:Work></rdf:RDF></metadata><defs
   id="defs3481" /><sodipodi:namedview
   pagecolor="#ffffff"
   bordercolor="#666666"
   borderopacity="1"
   objecttolerance="10"
   gridtolerance="10"
   guidetolerance="10"
   inkscape:pageopacity="0"
   inkscape:pageshadow="2"
   inkscape:window-width="1366"
   inkscape:window-height="706"
   id="namedview3479"
   showgrid="false"
   inkscape:zoom="1.8455487"
   inkscape:cx="278.46631"
   inkscape:cy="44.273726"
   inkscape:window-x="-8"
   inkscape:window-y="192"
   inkscape:window-maximized="1"
   inkscape:current-layer="g5017"
   showguides="true"
   inkscape:guide-bbox="true" />
<g
   id="g3337">
	<g
   id="g3339">
		<path
   fill="#606060"
   d="M98,50L83,23H28.769C25.583,23,23,25.59,23,28.786v42.428C23,74.409,25.583,77,28.769,77H83L98,50z"
   id="path3341" />
		<path
   fill="#BB0E3D"
   d="M96.501,25.815C95.445,24.069,93.541,23,91.486,23h-4.485l15.201,27L87,77h4.486    c2.055,0,3.96-1.069,5.015-2.815L110,50L96.501,25.815z"
   id="path3343" />
	</g>
	<g
   id="g3345">
		<rect
   x="55"
   y="38"
   fill="#FFFFFF"
   width="4"
   height="24"
   id="rect3347" />
		<polygon
   fill="#FFFFFF"
   points="47,38 47,55.6 36,38 32,38 32,62 36,62 36,44.4 47,62 51,62 51,38   "
   id="polygon3349" />
		<polygon
   fill="#FFFFFF"
   points="78,38 78,48 67,48 67,38 63,38 63,62 67,62 67,52 78,52 78,62 82,62 82,38   "
   id="polygon3351" />
	</g>
</g>
<g
   id="g3353">
	<g
   id="g3355">
		<path
   d="M130.854,31h2.495v11.184h-2.495l-5.328-7.008v7.008h-2.496V31h2.336l5.488,7.199V31z"
   id="path3357"
   fill="#BB0E3D" />
		<path
   d="M144.069,42.183l-1.04-2.416h-4.688l-1.04,2.416h-2.656L139.477,31h2.416l4.832,11.184L144.069,42.183    L144.069,42.183z M140.693,34.327l-1.407,3.248h2.8L140.693,34.327z"
   id="path3359"
   fill="#BB0E3D" />
		<path
   d="M151.941,33.159v9.024h-2.495v-9.024h-3.168V31h8.831v2.159H151.941z"
   id="path3361"
   fill="#BB0E3D" />
		<path
   d="M156.933,31h2.496v11.184h-2.496V31z"
   id="path3363"
   fill="#BB0E3D" />
		<path
   d="M171.589,40.639c-1.131,1.104-2.522,1.656-4.176,1.656s-3.046-0.553-4.176-1.656    c-1.131-1.104-1.696-2.478-1.696-4.12s0.565-3.016,1.696-4.12c1.13-1.104,2.522-1.656,4.176-1.656s3.045,0.553,4.176,1.656    c1.131,1.104,1.696,2.478,1.696,4.12S172.72,39.535,171.589,40.639z M170.741,36.527c0-0.997-0.32-1.848-0.96-2.552    c-0.641-0.704-1.427-1.056-2.36-1.056s-1.72,0.352-2.36,1.056s-0.96,1.555-0.96,2.552c0,0.998,0.32,1.846,0.96,2.544    c0.641,0.699,1.427,1.048,2.36,1.048s1.72-0.349,2.36-1.048C170.421,38.373,170.741,37.525,170.741,36.527z"
   id="path3365"
   fill="#BB0E3D" />
		<path
   d="M183.221,31h2.496v11.184h-2.496l-5.328-7.008v7.008h-2.496V31h2.336l5.488,7.199V31z"
   id="path3367"
   fill="#BB0E3D" />
		<path
   d="M196.437,42.183l-1.04-2.416h-4.688l-1.04,2.416h-2.656L191.845,31h2.416l4.832,11.184L196.437,42.183    L196.437,42.183z M193.061,34.327l-1.408,3.248h2.8L193.061,34.327z"
   id="path3369"
   fill="#BB0E3D" />
		<path
   d="M200.389,42.183V31h2.496v8.96h4.768v2.224L200.389,42.183L200.389,42.183z"
   id="path3371"
   fill="#BB0E3D" />
		<path
   d="M218.837,39.975c1.226,0,2.229-0.485,3.008-1.456l1.6,1.648c-1.27,1.429-2.766,2.144-4.488,2.144    s-3.141-0.544-4.256-1.632c-1.114-1.088-1.672-2.461-1.672-4.12c0-1.658,0.568-3.042,1.704-4.152    c1.136-1.108,2.525-1.664,4.168-1.664c1.835,0,3.37,0.699,4.608,2.097l-1.553,1.76c-0.789-0.981-1.771-1.472-2.943-1.472    c-0.939,0-1.742,0.307-2.408,0.92c-0.667,0.613-1,1.439-1,2.479s0.314,1.875,0.944,2.504    C217.178,39.661,217.941,39.975,218.837,39.975z"
   id="path3373"
   fill="#BB0E3D" />
		<path
   d="M233.301,42.183l-1.04-2.416h-4.688l-1.04,2.416h-2.656L228.709,31h2.416l4.832,11.184L233.301,42.183    L233.301,42.183z M229.925,34.327l-1.408,3.248h2.8L229.925,34.327z"
   id="path3375"
   fill="#BB0E3D" />
		<path
   d="M245.077,31h2.495v11.184h-2.495l-5.328-7.008v7.008h-2.496V31h2.336l5.488,7.199V31z"
   id="path3377"
   fill="#BB0E3D" />
		<path
   d="M255.46,39.975c1.227,0,2.229-0.485,3.008-1.456l1.601,1.648c-1.27,1.429-2.766,2.144-4.488,2.144    s-3.142-0.544-4.256-1.632c-1.115-1.088-1.672-2.461-1.672-4.12c0-1.658,0.567-3.042,1.704-4.152    c1.136-1.108,2.524-1.664,4.168-1.664c1.834,0,3.37,0.699,4.607,2.097l-1.552,1.76c-0.79-0.981-1.771-1.472-2.944-1.472    c-0.938,0-1.741,0.307-2.408,0.92c-0.666,0.613-1,1.439-1,2.479s0.315,1.875,0.944,2.504    C253.801,39.661,254.565,39.975,255.46,39.975z"
   id="path3379"
   fill="#BB0E3D" />
		<path
   d="M270.1,31v2.224h-5.567v2.304h5.008v2.128h-5.008v2.32h5.744v2.208h-8.24V31H270.1z"
   id="path3381"
   fill="#BB0E3D" />
		<path
   d="M281.572,34.711c0,1.792-0.71,2.949-2.129,3.472l2.832,4h-3.071l-2.48-3.568h-1.728v3.568H272.5V31h4.24    c1.738,0,2.979,0.293,3.72,0.88S281.572,33.41,281.572,34.711z M278.564,36.04c0.31-0.277,0.464-0.718,0.464-1.32    s-0.159-1.017-0.479-1.24s-0.88-0.336-1.68-0.336h-1.872v3.312h1.823C277.673,36.456,278.254,36.317,278.564,36.04z"
   id="path3383"
   fill="#BB0E3D" />
		<path
   d="M288.357,31h2.496v11.184h-2.496V31z"
   id="path3385"
   fill="#BB0E3D" />
		<path
   d="M301.429,31h2.495v11.184h-2.495l-5.328-7.008v7.008h-2.496V31h2.336l5.488,7.199V31z"
   id="path3387"
   fill="#BB0E3D" />
		<path
   d="M309.292,33.231c-0.24,0.197-0.36,0.459-0.36,0.784s0.146,0.584,0.439,0.776    c0.294,0.191,0.971,0.418,2.032,0.68s1.886,0.653,2.473,1.176c0.586,0.522,0.88,1.285,0.88,2.288s-0.376,1.816-1.128,2.44    s-1.742,0.936-2.969,0.936c-1.771,0-3.365-0.656-4.783-1.968l1.487-1.824c1.205,1.056,2.32,1.584,3.345,1.584    c0.458,0,0.818-0.099,1.079-0.296c0.262-0.197,0.393-0.464,0.393-0.8s-0.139-0.603-0.416-0.8s-0.827-0.397-1.648-0.601    c-1.301-0.309-2.253-0.712-2.855-1.208s-0.904-1.274-0.904-2.336s0.381-1.88,1.145-2.456c0.762-0.576,1.714-0.864,2.855-0.864    c0.747,0,1.493,0.129,2.24,0.385c0.746,0.256,1.397,0.618,1.952,1.088l-1.265,1.824c-0.971-0.736-1.973-1.104-3.008-1.104    C309.859,32.935,309.531,33.034,309.292,33.231z"
   id="path3389"
   fill="#BB0E3D" />
		<path
   d="M321.524,33.159v9.024h-2.496v-9.024h-3.168V31h8.832v2.159H321.524z"
   id="path3391"
   fill="#BB0E3D" />
		<path
   d="M326.515,31h2.496v11.184h-2.496V31z"
   id="path3393"
   fill="#BB0E3D" />
		<path
   d="M336.499,33.159v9.024h-2.496v-9.024h-3.168V31h8.832v2.159H336.499z"
   id="path3395"
   fill="#BB0E3D" />
		<path
   d="M344.45,39.295c0.416,0.518,0.977,0.775,1.681,0.775s1.261-0.258,1.672-0.775    c0.41-0.518,0.616-1.225,0.616-2.12V31h2.495v6.256c0,1.621-0.447,2.866-1.344,3.735c-0.896,0.87-2.043,1.305-3.439,1.305    c-1.397,0-2.547-0.438-3.448-1.312s-1.353-2.117-1.353-3.728V31h2.496v6.176C343.826,38.071,344.034,38.778,344.45,39.295z"
   id="path3397"
   fill="#BB0E3D" />
		<path
   d="M358.242,33.159v9.024h-2.496v-9.024h-3.168V31h8.832v2.159H358.242z"
   id="path3399"
   fill="#BB0E3D" />
		<path
   d="M371.298,31v2.224h-5.568v2.304h5.008v2.128h-5.008v2.32h5.744v2.208h-8.24V31H371.298z"
   id="path3401"
   fill="#BB0E3D" />
	</g>
</g>
<g
   id="g3403"
   transform="translate(4,0)">
	
	
	
	
	
	
	
	
	
	
	<path
   d="m 199.403,66.122 c 1.61,0 2.926,-0.637 3.948,-1.91 l 2.1,2.162 c -1.667,1.877 -3.63,2.814 -5.891,2.814 -2.261,0 -4.124,-0.714 -5.586,-2.142 -1.463,-1.429 -2.195,-3.23 -2.195,-5.408 0,-2.177 0.746,-3.993 2.237,-5.449 1.491,-1.456 3.314,-2.184 5.47,-2.184 2.408,0 4.424,0.917 6.048,2.751 l -2.037,2.31 c -1.036,-1.288 -2.324,-1.932 -3.864,-1.932 -1.232,0 -2.286,0.402 -3.16,1.207 -0.875,0.806 -1.312,1.891 -1.312,3.255 0,1.365 0.413,2.461 1.239,3.287 0.826,0.826 1.828,1.239 3.003,1.239 z"
   id="path3425"
   inkscape:connector-curvature="0"
   style="fill:#606060" />
	<path
   d="m 217.191,69.02 -2.961,0 0,-1.365 c -0.812,1.022 -1.816,1.533 -3.014,1.533 -1.197,0 -2.202,-0.347 -3.013,-1.039 -0.812,-0.693 -1.218,-1.617 -1.218,-2.772 0,-1.155 0.42,-2.02 1.26,-2.594 0.84,-0.573 1.988,-0.86 3.444,-0.86 l 2.352,0 0,-0.063 c 0,-1.204 -0.637,-1.806 -1.911,-1.806 -0.546,0 -1.124,0.108 -1.732,0.325 -0.609,0.218 -1.124,0.486 -1.543,0.809 l -1.407,-2.037 c 1.483,-1.078 3.178,-1.617 5.082,-1.617 1.372,0 2.492,0.344 3.36,1.029 0.868,0.687 1.302,1.771 1.302,3.255 l -0.001,7.202 0,0 z m -3.171,-4.305 0,-0.546 -1.974,0 c -1.26,0 -1.89,0.392 -1.89,1.176 0,0.406 0.15,0.718 0.451,0.935 0.301,0.217 0.731,0.325 1.292,0.325 0.561,0 1.053,-0.171 1.48,-0.515 0.427,-0.342 0.641,-0.8 0.641,-1.375 z"
   id="path3427"
   inkscape:connector-curvature="0"
   style="fill:#606060" />
	<path
   d="m 223.218,62.72 0,6.3 -3.15,0 0,-11.298 3.15,0 0,1.26 c 0.952,-0.966 2.023,-1.449 3.213,-1.449 1.19,0 2.188,0.42 2.993,1.261 0.805,0.84 1.208,1.96 1.208,3.359 l 0,6.867 -3.15,0 0,-6.384 c 0,-1.736 -0.637,-2.604 -1.911,-2.604 -0.63,0 -1.18,0.228 -1.648,0.683 -0.471,0.454 -0.705,1.123 -0.705,2.005 z"
   id="path3429"
   inkscape:connector-curvature="0"
   style="fill:#606060" />
	<path
   d="m 238.904,66.395 c 1.05,0 1.995,-0.525 2.835,-1.575 l 1.869,2.101 c -1.456,1.512 -3.031,2.268 -4.725,2.268 -1.694,0 -3.126,-0.535 -4.295,-1.606 -1.169,-1.071 -1.753,-2.471 -1.753,-4.2 0,-1.729 0.591,-3.136 1.774,-4.221 1.183,-1.085 2.586,-1.628 4.211,-1.628 0.812,0 1.634,0.168 2.467,0.504 0.833,0.336 1.564,0.834 2.194,1.491 l -1.638,2.143 c -0.364,-0.435 -0.809,-0.771 -1.333,-1.009 -0.525,-0.237 -1.047,-0.356 -1.564,-0.356 -0.826,0 -1.537,0.27 -2.132,0.809 -0.595,0.539 -0.893,1.288 -0.893,2.247 0,0.959 0.297,1.704 0.893,2.236 0.596,0.532 1.292,0.796 2.09,0.796 z"
   id="path3431"
   inkscape:connector-curvature="0"
   style="fill:#606060" />
	<path
   d="m 255.494,67.382 c -1.274,1.204 -2.769,1.806 -4.483,1.806 -1.714,0 -3.132,-0.528 -4.252,-1.586 -1.12,-1.057 -1.68,-2.474 -1.68,-4.252 0,-1.778 0.57,-3.192 1.711,-4.242 1.141,-1.05 2.489,-1.575 4.043,-1.575 1.554,0 2.873,0.47 3.958,1.407 1.084,0.938 1.627,2.227 1.627,3.864 l 0,1.68 -8.232,0 c 0.098,0.616 0.42,1.12 0.966,1.512 0.546,0.393 1.162,0.589 1.848,0.589 1.105,0 2.016,-0.371 2.73,-1.113 l 1.764,1.91 z m -3.024,-6.699 c -0.434,-0.364 -0.963,-0.546 -1.585,-0.546 -0.623,0 -1.194,0.188 -1.711,0.566 -0.518,0.378 -0.819,0.89 -0.903,1.533 l 4.956,0 c -0.071,-0.671 -0.323,-1.189 -0.757,-1.553 z"
   id="path3433"
   inkscape:connector-curvature="0"
   style="fill:#606060" />
	<path
   d="m 264.629,60.494 c -0.938,0 -1.638,0.333 -2.1,0.998 -0.462,0.665 -0.693,1.543 -0.693,2.636 l 0,4.893 -3.15,0 0,-11.299 3.15,0 0,1.491 c 0.406,-0.462 0.914,-0.854 1.522,-1.177 0.609,-0.321 1.229,-0.489 1.858,-0.504 l 0.021,2.961 -0.608,10e-4 0,0 z"
   id="path3435"
   inkscape:connector-curvature="0"
   style="fill:#606060" />
	
	
	
	
	
	
	
	
	
	
	
	
	
	
	
	
	
	
	
	
	
<path
   d="m 138.90209,60.400107 c -0.938,0 -1.638,0.333 -2.1,0.998 -0.462,0.665 -0.693,1.543 -0.693,2.636 l 0,4.893 -3.15,0 0,-11.299 3.15,0 0,1.491 c 0.406,-0.462 0.914,-0.854 1.522,-1.177 0.609,-0.321 1.229,-0.489 1.858,-0.504 l 0.021,2.961 -0.608,10e-4 0,0 z"
   id="path3435-1"
   inkscape:connector-curvature="0"
   style="fill:#60605d;fill-opacity:1" /><path
   d="m 151.06903,67.176089 c -1.274,1.204 -2.769,1.806 -4.483,1.806 -1.714,0 -3.132,-0.528 -4.252,-1.586 -1.12,-1.057 -1.68,-2.474 -1.68,-4.252 0,-1.778 0.57,-3.192 1.711,-4.242 1.141,-1.05 2.489,-1.575 4.043,-1.575 1.554,0 2.873,0.47 3.958,1.407 1.084,0.938 1.627,2.227 1.627,3.864 l 0,1.68 -8.232,0 c 0.098,0.616 0.42,1.12 0.966,1.512 0.546,0.393 1.162,0.589 1.848,0.589 1.105,0 2.016,-0.371 2.73,-1.113 l 1.764,1.91 z m -3.024,-6.699 c -0.434,-0.364 -0.963,-0.546 -1.585,-0.546 -0.623,0 -1.194,0.188 -1.711,0.566 -0.518,0.378 -0.819,0.89 -0.903,1.533 l 4.956,0 c -0.071,-0.671 -0.323,-1.189 -0.757,-1.553 z"
   id="path3433-1"
   inkscape:connector-curvature="0"
   style="fill:#606060" /><path
   d="m 164.05583,68.813589 -2.961,0 0,-1.365 c -0.812,1.022 -1.816,1.533 -3.014,1.533 -1.197,0 -2.202,-0.347 -3.013,-1.039 -0.812,-0.693 -1.218,-1.617 -1.218,-2.772 0,-1.155 0.42,-2.02 1.26,-2.594 0.84,-0.573 1.988,-0.86 3.444,-0.86 l 2.352,0 0,-0.063 c 0,-1.204 -0.637,-1.806 -1.911,-1.806 -0.546,0 -1.124,0.108 -1.732,0.325 -0.609,0.218 -1.124,0.486 -1.543,0.809 l -1.407,-2.037 c 1.483,-1.078 3.178,-1.617 5.082,-1.617 1.372,0 2.492,0.344 3.36,1.029 0.868,0.687 1.302,1.771 1.302,3.255 l -0.001,7.202 0,0 z m -3.171,-4.305 0,-0.546 -1.974,0 c -1.26,0 -1.89,0.392 -1.89,1.176 0,0.406 0.15,0.718 0.451,0.935 0.301,0.217 0.731,0.325 1.292,0.325 0.561,0 1.053,-0.171 1.48,-0.515 0.427,-0.342 0.641,-0.8 0.641,-1.375 z"
   id="path3427-7"
   inkscape:connector-curvature="0"
   style="fill:#606060" /></g>
<path
   id="path4562"
   d="m 288.17248,59.12152 c 0,2.352 -0.931,3.871 -2.793,4.557 l 3.717,5.25 -4.032,0 -3.255,-4.683 -2.268,0 0,4.683 -3.276,0 0,-14.679 5.565,0 c 2.282,0 3.909,0.385 4.882,1.154 0.974,0.771 1.46,2.01 1.46,3.718 z m -3.948,1.742 c 0.406,-0.363 0.609,-0.941 0.609,-1.732 0,-0.79 -0.21,-1.333 -0.63,-1.627 -0.42,-0.294 -1.155,-0.441 -2.205,-0.441 l -2.457,0 0,4.348 2.394,0 c 1.12,-0.001 1.883,-0.184 2.289,-0.548 z"
   inkscape:connector-curvature="0"
   style="fill:#606060" /><path
   id="path4564"
   d="m 291.37448,56.19152 c -0.357,-0.357 -0.536,-0.795 -0.536,-1.312 0,-0.517 0.179,-0.956002 0.536,-1.312002 0.357,-0.357 0.794,-0.536 1.312,-0.536 0.518,0 0.956,0.179 1.312,0.536 0.357,0.356 0.536,0.795002 0.536,1.312002 0,0.517 -0.179,0.955 -0.536,1.312 -0.357,0.356 -0.794,0.535 -1.312,0.535 -0.518,0 -0.955,-0.178 -1.312,-0.535 z m 2.888,12.737 -3.15,0 0,-11.298 3.15,0 0,11.298 z"
   inkscape:connector-curvature="0"
   style="fill:#606060" /><path
   id="path4566"
   d="m 305.74948,65.41052 c 0,1.113 -0.41,2.006 -1.229,2.678 -0.819,0.672 -1.858,1.008 -3.119,1.008 -0.84,0 -1.715,-0.15 -2.625,-0.451 -0.91,-0.301 -1.729,-0.746 -2.457,-1.334 l 1.386,-1.974 c 1.176,0.91 2.429,1.365 3.759,1.365 0.406,0 0.728,-0.081 0.966,-0.242 0.238,-0.16 0.357,-0.374 0.357,-0.641 0,-0.266 -0.165,-0.511 -0.494,-0.734 -0.329,-0.224 -0.805,-0.434 -1.428,-0.63 -0.623,-0.196 -1.099,-0.364 -1.428,-0.504 -0.329,-0.141 -0.704,-0.344 -1.124,-0.609 -0.854,-0.532 -1.281,-1.319 -1.281,-2.362 0,-1.043 0.42,-1.894 1.26,-2.552 0.84,-0.658 1.925,-0.987 3.255,-0.987 1.33,0 2.66,0.448 3.99,1.345 l -1.176,2.1 c -0.98,-0.672 -1.957,-1.008 -2.929,-1.008 -0.973,0 -1.459,0.266 -1.459,0.798 0,0.294 0.154,0.525 0.462,0.693 0.308,0.168 0.819,0.364 1.533,0.588 0.714,0.224 1.222,0.396 1.522,0.515 0.301,0.118 0.662,0.304 1.082,0.556 0.785,0.475 1.177,1.269 1.177,2.382 z"
   inkscape:connector-curvature="0"
   style="fill:#606060" /><path
   id="path4568"
   d="m 311.31448,68.92852 -3.15,0 0,-15.583002 3.15,0 0,8.001002 3.507,-3.738 3.969,0 -4.305,4.578 4.473,6.741 -3.738,0 -2.877,-4.326 -1.029,1.071 0,3.256 z"
   inkscape:connector-curvature="0"
   style="fill:#606060" /><path
   id="path4570"
   d="m 336.97548,68.92852 -1.365,-3.171 -6.153,0 -1.365,3.171 -3.486,0 6.342,-14.679 3.171,0 6.342,14.679 -3.486,0 z m -4.431,-10.311 -1.848,4.263 3.675,0 -1.827,-4.263 z"
   inkscape:connector-curvature="0"
   style="fill:#606060" /><path
   id="path4572"
   d="m 350.35248,65.41052 c 0,1.113 -0.41,2.006 -1.229,2.678 -0.819,0.672 -1.858,1.008 -3.119,1.008 -0.84,0 -1.715,-0.15 -2.625,-0.451 -0.91,-0.301 -1.729,-0.746 -2.457,-1.334 l 1.386,-1.974 c 1.176,0.91 2.429,1.365 3.759,1.365 0.406,0 0.728,-0.081 0.966,-0.242 0.238,-0.16 0.357,-0.374 0.357,-0.641 0,-0.266 -0.165,-0.511 -0.494,-0.734 -0.329,-0.224 -0.805,-0.434 -1.428,-0.63 -0.623,-0.196 -1.099,-0.364 -1.428,-0.504 -0.329,-0.141 -0.704,-0.344 -1.124,-0.609 -0.854,-0.532 -1.281,-1.319 -1.281,-2.362 0,-1.043 0.42,-1.894 1.26,-2.552 0.84,-0.658 1.925,-0.987 3.255,-0.987 1.33,0 2.66,0.448 3.99,1.345 l -1.176,2.1 c -0.98,-0.672 -1.957,-1.008 -2.929,-1.008 -0.973,0 -1.459,0.266 -1.459,0.798 0,0.294 0.154,0.525 0.462,0.693 0.308,0.168 0.819,0.364 1.533,0.588 0.714,0.224 1.222,0.396 1.522,0.515 0.301,0.118 0.662,0.304 1.082,0.556 0.785,0.475 1.177,1.269 1.177,2.382 z"
   inkscape:connector-curvature="0"
   style="fill:#606060" /><path
   id="path4574"
   d="m 361.27248,65.41052 c 0,1.113 -0.41,2.006 -1.229,2.678 -0.819,0.672 -1.858,1.008 -3.119,1.008 -0.84,0 -1.715,-0.15 -2.625,-0.451 -0.91,-0.301 -1.729,-0.746 -2.457,-1.334 l 1.386,-1.974 c 1.176,0.91 2.429,1.365 3.759,1.365 0.406,0 0.728,-0.081 0.966,-0.242 0.238,-0.16 0.357,-0.374 0.357,-0.641 0,-0.266 -0.165,-0.511 -0.494,-0.734 -0.329,-0.224 -0.805,-0.434 -1.428,-0.63 -0.623,-0.196 -1.099,-0.364 -1.428,-0.504 -0.329,-0.141 -0.704,-0.344 -1.124,-0.609 -0.854,-0.532 -1.281,-1.319 -1.281,-2.362 0,-1.043 0.42,-1.894 1.26,-2.552 0.84,-0.658 1.925,-0.987 3.255,-0.987 1.33,0 2.66,0.448 3.99,1.345 l -1.176,2.1 c -0.98,-0.672 -1.957,-1.008 -2.929,-1.008 -0.973,0 -1.459,0.266 -1.459,0.798 0,0.294 0.154,0.525 0.462,0.693 0.308,0.168 0.819,0.364 1.533,0.588 0.714,0.224 1.222,0.396 1.522,0.515 0.301,0.118 0.662,0.304 1.082,0.556 0.785,0.475 1.177,1.269 1.177,2.382 z"
   inkscape:connector-curvature="0"
   style="fill:#606060" /><path
   id="path4576"
   d="m 373.47248,67.29052 c -1.274,1.204 -2.769,1.806 -4.483,1.806 -1.714,0 -3.132,-0.528 -4.252,-1.586 -1.12,-1.057 -1.68,-2.474 -1.68,-4.252 0,-1.778 0.57,-3.192 1.711,-4.242 1.141,-1.05 2.489,-1.575 4.043,-1.575 1.554,0 2.873,0.47 3.958,1.407 1.084,0.938 1.627,2.227 1.627,3.864 l 0,1.68 -8.232,0 c 0.098,0.616 0.42,1.12 0.966,1.512 0.546,0.393 1.162,0.589 1.848,0.589 1.105,0 2.016,-0.371 2.73,-1.113 l 1.764,1.91 z m -3.024,-6.699 c -0.434,-0.364 -0.963,-0.546 -1.585,-0.546 -0.623,0 -1.194,0.188 -1.711,0.566 -0.518,0.378 -0.819,0.89 -0.903,1.533 l 4.956,0 c -0.071,-0.672 -0.323,-1.189 -0.757,-1.553 z"
   inkscape:connector-curvature="0"
   style="fill:#606060" /><path
   id="path4578"
   d="m 385.17048,65.41052 c 0,1.113 -0.41,2.006 -1.229,2.678 -0.819,0.672 -1.858,1.008 -3.119,1.008 -0.84,0 -1.715,-0.15 -2.625,-0.451 -0.91,-0.301 -1.729,-0.746 -2.457,-1.334 l 1.386,-1.974 c 1.176,0.91 2.429,1.365 3.759,1.365 0.406,0 0.728,-0.081 0.966,-0.242 0.238,-0.16 0.357,-0.374 0.357,-0.641 0,-0.266 -0.165,-0.511 -0.494,-0.734 -0.329,-0.224 -0.805,-0.434 -1.428,-0.63 -0.623,-0.196 -1.099,-0.364 -1.428,-0.504 -0.329,-0.141 -0.704,-0.344 -1.124,-0.609 -0.854,-0.532 -1.281,-1.319 -1.281,-2.362 0,-1.043 0.42,-1.894 1.26,-2.552 0.84,-0.658 1.925,-0.987 3.255,-0.987 1.33,0 2.66,0.448 3.99,1.345 l -1.176,2.1 c -0.98,-0.672 -1.957,-1.008 -2.929,-1.008 -0.973,0 -1.459,0.266 -1.459,0.798 0,0.294 0.154,0.525 0.462,0.693 0.308,0.168 0.819,0.364 1.533,0.588 0.714,0.224 1.222,0.396 1.522,0.515 0.301,0.118 0.662,0.304 1.082,0.556 0.784,0.475 1.177,1.269 1.177,2.382 z"
   inkscape:connector-curvature="0"
   style="fill:#606060" /><path
   id="path4580"
   d="m 396.08948,65.41052 c 0,1.113 -0.41,2.006 -1.229,2.678 -0.819,0.672 -1.858,1.008 -3.119,1.008 -0.84,0 -1.715,-0.15 -2.625,-0.451 -0.91,-0.301 -1.729,-0.746 -2.457,-1.334 l 1.386,-1.974 c 1.176,0.91 2.429,1.365 3.759,1.365 0.406,0 0.728,-0.081 0.966,-0.242 0.238,-0.16 0.357,-0.374 0.357,-0.641 0,-0.266 -0.165,-0.511 -0.494,-0.734 -0.329,-0.224 -0.805,-0.434 -1.428,-0.63 -0.623,-0.196 -1.099,-0.364 -1.428,-0.504 -0.329,-0.141 -0.704,-0.344 -1.124,-0.609 -0.854,-0.532 -1.281,-1.319 -1.281,-2.362 0,-1.043 0.42,-1.894 1.26,-2.552 0.84,-0.658 1.925,-0.987 3.255,-0.987 1.33,0 2.66,0.448 3.99,1.345 l -1.176,2.1 c -0.98,-0.672 -1.957,-1.008 -2.929,-1.008 -0.973,0 -1.459,0.266 -1.459,0.798 0,0.294 0.154,0.525 0.462,0.693 0.308,0.168 0.819,0.364 1.533,0.588 0.714,0.224 1.222,0.396 1.522,0.515 0.301,0.118 0.662,0.304 1.082,0.556 0.785,0.475 1.177,1.269 1.177,2.382 z"
   inkscape:connector-curvature="0"
   style="fill:#606060" /><path
   id="path4582"
   d="m 408.87848,62.83852 0,6.09 -3.171,0 0,-6.174 c 0,-0.896 -0.136,-1.554 -0.409,-1.975 -0.273,-0.42 -0.714,-0.63 -1.323,-0.63 -0.609,0 -1.148,0.229 -1.617,0.683 -0.469,0.455 -0.704,1.124 -0.704,2.006 l 0,6.09 -3.15,0 0,-11.298 3.15,0 0,1.281 c 0.868,-0.98 1.862,-1.471 2.982,-1.471 0.714,0 1.361,0.21 1.942,0.63 0.581,0.421 1.019,0.932 1.312,1.533 0.434,-0.686 1.019,-1.218 1.753,-1.596 0.735,-0.378 1.474,-0.567 2.216,-0.567 1.33,0 2.401,0.396 3.213,1.187 0.812,0.791 1.218,1.936 1.218,3.434 l 0,6.867 -3.171,0 0,-6.174 c 0,-1.736 -0.637,-2.604 -1.911,-2.604 -0.63,0 -1.176,0.229 -1.638,0.683 -0.461,0.454 -0.692,1.123 -0.692,2.005 z"
   inkscape:connector-curvature="0"
   style="fill:#606060" /><path
   id="path4584"
   d="m 428.93348,67.29052 c -1.274,1.204 -2.769,1.806 -4.484,1.806 -1.715,0 -3.132,-0.528 -4.252,-1.586 -1.12,-1.057 -1.68,-2.474 -1.68,-4.252 0,-1.778 0.57,-3.192 1.711,-4.242 1.141,-1.05 2.489,-1.575 4.043,-1.575 1.554,0 2.873,0.47 3.958,1.407 1.084,0.938 1.627,2.227 1.627,3.864 l 0,1.68 -8.232,0 c 0.098,0.616 0.42,1.12 0.966,1.512 0.546,0.393 1.162,0.589 1.848,0.589 1.105,0 2.016,-0.371 2.73,-1.113 l 1.765,1.91 z m -3.024,-6.699 c -0.434,-0.364 -0.963,-0.546 -1.585,-0.546 -0.623,0 -1.194,0.188 -1.711,0.566 -0.518,0.378 -0.819,0.89 -0.903,1.533 l 4.956,0 c -0.071,-0.672 -0.323,-1.189 -0.757,-1.553 z"
   inkscape:connector-curvature="0"
   style="fill:#606060" /><path
   id="path4586"
   d="m 435.27448,62.62852 0,6.3 -3.149,0 0,-11.298 3.149,0 0,1.26 c 0.952,-0.966 2.023,-1.449 3.213,-1.449 1.19,0 2.188,0.42 2.993,1.261 0.805,0.84 1.207,1.96 1.207,3.359 l 0,6.867 -3.149,0 0,-6.384 c 0,-1.736 -0.638,-2.604 -1.911,-2.604 -0.63,0 -1.18,0.228 -1.648,0.683 -0.471,0.454 -0.705,1.123 -0.705,2.005 z"
   inkscape:connector-curvature="0"
   style="fill:#606060" /><path
   id="path4588"
   d="m 449.13448,59.89752 0,5.062 c 0,0.434 0.112,0.773 0.336,1.019 0.224,0.246 0.49,0.367 0.798,0.367 0.588,0 1.085,-0.266 1.491,-0.798 l 1.176,2.205 c -0.979,0.896 -2.013,1.344 -3.098,1.344 -1.085,0 -2.002,-0.357 -2.751,-1.071 -0.749,-0.714 -1.123,-1.687 -1.123,-2.919 l 0,-5.209 -1.323,0 0,-2.268 1.323,0 0,-3.381 3.171,0 0,3.381 2.73,0 0,2.268 -2.73,0 z"
   inkscape:connector-curvature="0"
   style="fill:#606060" /><path
   id="path4590"
   d="m 466.69048,57.08452 0,11.844 -3.276,0 0,-11.844 -4.158,0 0,-2.835 11.592,0 0,2.835 -4.158,0 z"
   inkscape:connector-curvature="0"
   style="fill:#606060" /><path
   id="path4592"
   d="m 482.96448,63.27852 c 0,1.639 -0.567,3.018 -1.701,4.138 -1.134,1.12 -2.559,1.68 -4.273,1.68 -1.714,0 -3.14,-0.56 -4.273,-1.68 -1.133,-1.12 -1.701,-2.499 -1.701,-4.138 0,-1.638 0.567,-3.02 1.701,-4.147 1.134,-1.126 2.559,-1.69 4.273,-1.69 1.714,0 3.14,0.564 4.273,1.69 1.134,1.128 1.701,2.509 1.701,4.147 z m -8.778,0 c 0,0.925 0.263,1.677 0.788,2.258 0.524,0.581 1.196,0.872 2.016,0.872 0.82,0 1.491,-0.291 2.016,-0.872 0.525,-0.581 0.788,-1.333 0.788,-2.258 0,-0.924 -0.263,-1.68 -0.788,-2.268 -0.524,-0.588 -1.196,-0.882 -2.016,-0.882 -0.82,0 -1.491,0.294 -2.016,0.882 -0.525,0.588 -0.788,1.344 -0.788,2.268 z"
   inkscape:connector-curvature="0"
   style="fill:#606060" /><path
   id="path4594"
   d="m 496.59348,63.27852 c 0,1.639 -0.567,3.018 -1.701,4.138 -1.134,1.12 -2.559,1.68 -4.273,1.68 -1.714,0 -3.14,-0.56 -4.273,-1.68 -1.133,-1.12 -1.701,-2.499 -1.701,-4.138 0,-1.638 0.567,-3.02 1.701,-4.147 1.134,-1.126 2.559,-1.69 4.273,-1.69 1.714,0 3.14,0.564 4.273,1.69 1.134,1.128 1.701,2.509 1.701,4.147 z m -8.778,0 c 0,0.925 0.263,1.677 0.788,2.258 0.524,0.581 1.196,0.872 2.016,0.872 0.82,0 1.491,-0.291 2.016,-0.872 0.525,-0.581 0.788,-1.333 0.788,-2.258 0,-0.924 -0.263,-1.68 -0.788,-2.268 -0.524,-0.588 -1.196,-0.882 -2.016,-0.882 -0.82,0 -1.491,0.294 -2.016,0.882 -0.525,0.588 -0.788,1.344 -0.788,2.268 z"
   inkscape:connector-curvature="0"
   style="fill:#606060" /><path
   id="path4596"
   d="m 502.07448,68.92852 -3.149,0 0,-15.583002 3.149,0 0,15.583002 z"
   inkscape:connector-curvature="0"
   style="fill:#606060" /><path
   id="path4566-9"
   d="m 180.13074,65.296089 c 0,1.113 -0.41,2.006 -1.229,2.678 -0.819,0.672 -1.858,1.008 -3.119,1.008 -0.84,0 -1.715,-0.15 -2.625,-0.451 -0.91,-0.301 -1.729,-0.746 -2.457,-1.334 l 1.386,-1.974 c 1.176,0.91 2.429,1.365 3.759,1.365 0.406,0 0.728,-0.081 0.966,-0.242 0.238,-0.16 0.357,-0.374 0.357,-0.641 0,-0.266 -0.165,-0.511 -0.494,-0.734 -0.329,-0.224 -0.805,-0.434 -1.428,-0.63 -0.623,-0.196 -1.099,-0.364 -1.428,-0.504 -0.329,-0.141 -0.704,-0.344 -1.124,-0.609 -0.854,-0.532 -1.281,-1.319 -1.281,-2.362 0,-1.043 0.42,-1.894 1.26,-2.552 0.84,-0.658 1.925,-0.987 3.255,-0.987 1.33,0 2.66,0.448 3.99,1.345 l -1.176,2.1 c -0.98,-0.672 -1.957,-1.008 -2.929,-1.008 -0.973,0 -1.459,0.266 -1.459,0.798 0,0.294 0.154,0.525 0.462,0.693 0.308,0.168 0.819,0.364 1.533,0.588 0.714,0.224 1.222,0.396 1.522,0.515 0.301,0.118 0.662,0.304 1.082,0.556 0.785,0.475 1.177,1.269 1.177,2.382 z"
   inkscape:connector-curvature="0"
   style="fill:#606060" /><path
   id="path4588-9"
   d="m 186.39204,59.857602 0,5.062 c 0,0.434 0.112,0.773 0.336,1.019 0.224,0.246 0.49,0.367 0.798,0.367 0.588,0 1.085,-0.266 1.491,-0.798 l 1.176,2.205 c -0.979,0.896 -2.013,1.344 -3.098,1.344 -1.085,0 -2.002,-0.357 -2.751,-1.071 -0.749,-0.714 -1.123,-1.687 -1.123,-2.919 l 0,-5.209 -1.323,0 0,-2.268 1.323,0 0,-3.381 3.171,0 0,3.381 2.73,0 0,2.268 -2.73,0 z"
   inkscape:connector-curvature="0"
   style="fill:#606060" /><g
   id="g5017"
   transform="translate(-77.159216,-0.2031916)"><path
     style="fill:#606060"
     d="m 203.335,52.013739 c -0.99326,0.0021 -1.98742,0.0091 -2.98047,0.002 l 0,9.410156 c 0.005,9e-5 0.009,-8.8e-5 0.0137,0 l 0,7.683594 c 2.18081,-0.01397 4.36308,0.03164 6.54297,-0.02734 1.58638,-0.031 3.22695,-0.718882 4.10547,-2.08789 0.52639,-0.814008 0.73462,-1.795962 0.73242,-2.75586 0.0458,-1.575824 -0.67191,-3.173726 -1.99414,-4.068359 -0.0145,-0.01443 -0.0321,-0.01955 -0.0469,-0.0332 0.69447,-0.91838 1.04296,-2.093323 1.01172,-3.248047 10e-4,-0.990786 -0.19669,-2.008563 -0.72852,-2.857422 -0.77293,-1.253613 -2.22641,-1.959388 -3.67773,-1.986328 -0.99255,-0.02965 -1.98526,-0.03339 -2.97852,-0.03125 z m 0.004,2.816406 c 0.92709,0.0048 1.85447,-0.0101 2.78125,0.01172 0.66931,0.109789 1.3342,0.594112 1.54492,1.261719 0.21716,0.827373 0.20106,1.858628 -0.40039,2.527343 -0.22759,0.235909 -0.52074,0.407004 -0.84375,0.470704 -1.01983,0.143 -2.05449,0.05049 -3.08203,0.07617 l 0,-4.347656 z m 1.93359,7.113281 c 0.54271,-0.0018 1.08488,0.0072 1.625,0.05859 0.39489,0.05165 0.7697,0.217742 1.0586,0.494141 0.64661,0.640645 0.68315,1.698591 0.4375,2.52539 -0.25093,0.701332 -0.99008,1.156964 -1.69532,1.263672 -1.0177,0.02168 -2.03476,0.005 -3.05273,0.0098 l 0,-4.347656 c 0.54207,0.0099 1.08425,-0.0021 1.62695,-0.0039 z"
     id="path4562-4"
     inkscape:connector-curvature="0" /></g></svg>