<?xml version="1.0" encoding="UTF-8" standalone="no"?>
<!-- Generator: Adobe Illustrator 18.1.0, SVG Export Plug-In . SVG Version: 6.00 Build 0)  -->

<svg
   xmlns:dc="http://purl.org/dc/elements/1.1/"
   xmlns:cc="http://creativecommons.org/ns#"
   xmlns:rdf="http://www.w3.org/1999/02/22-rdf-syntax-ns#"
   xmlns:svg="http://www.w3.org/2000/svg"
   xmlns="http://www.w3.org/2000/svg"
   xmlns:sodipodi="http://sodipodi.sourceforge.net/DTD/sodipodi-0.dtd"
   xmlns:inkscape="http://www.inkscape.org/namespaces/inkscape"
   version="1.1"
   id="Layer_1"
   x="0px"
   y="0px"
   viewBox="0 0 608 100"
   enable-background="new 0 0 608 100"
   xml:space="preserve"
   inkscape:version="0.91 r13725"
   sodipodi:docname="mrat-logo-color.svg"><metadata
   id="metadata3483"><rdf:RDF><cc:Work
       rdf:about=""><dc:format>image/svg+xml</dc:format><dc:type
         rdf:resource="http://purl.org/dc/dcmitype/StillImage" /><dc:title></dc:title></cc:Work></rdf:RDF></metadata><defs
   id="defs3481" /><sodipodi:namedview
   pagecolor="#ffffff"
   bordercolor="#666666"
   borderopacity="1"
   objecttolerance="10"
   gridtolerance="10"
   guidetolerance="10"
   inkscape:pageopacity="0"
   inkscape:pageshadow="2"
   inkscape:window-width="1366"
   inkscape:window-height="706"
   id="namedview3479"
   showgrid="false"
   inkscape:zoom="1.8455487"
   inkscape:cx="388.33596"
   inkscape:cy="68.55245"
   inkscape:window-x="-8"
   inkscape:window-y="192"
   inkscape:window-maximized="1"
   inkscape:current-layer="Layer_1"
   showguides="true"
   inkscape:guide-bbox="true"><sodipodi:guide
     position="11.920574,31.426968"
     orientation="0,1"
     id="guide3560" /><sodipodi:guide
     position="148.72305,30.752902"
     orientation="0,1"
     id="guide3562" /><sodipodi:guide
     position="122.00332,88.729685"
     orientation="1,0"
     id="guide3579" /><sodipodi:guide
     position="371.05141,47.389718"
     orientation="1,0"
     id="guide3581" /><sodipodi:guide
     position="122.60536,31.426968"
     orientation="1,0"
     id="guide3606" /><sodipodi:guide
     position="152.49042,45.977012"
     orientation="0,1"
     id="guide3608" /></sodipodi:namedview>
<g
   id="g3337">
	<g
   id="g3339">
		<path
   fill="#606060"
   d="M98,50L83,23H28.769C25.583,23,23,25.59,23,28.786v42.428C23,74.409,25.583,77,28.769,77H83L98,50z"
   id="path3341" />
		<path
   fill="#BB0E3D"
   d="M96.501,25.815C95.445,24.069,93.541,23,91.486,23h-4.485l15.201,27L87,77h4.486    c2.055,0,3.96-1.069,5.015-2.815L110,50L96.501,25.815z"
   id="path3343" />
	</g>
	<g
   id="g3345">
		<rect
   x="55"
   y="38"
   fill="#FFFFFF"
   width="4"
   height="24"
   id="rect3347" />
		<polygon
   fill="#FFFFFF"
   points="47,38 47,55.6 36,38 32,38 32,62 36,62 36,44.4 47,62 51,62 51,38   "
   id="polygon3349" />
		<polygon
   fill="#FFFFFF"
   points="78,38 78,48 67,48 67,38 63,38 63,62 67,62 67,52 78,52 78,62 82,62 82,38   "
   id="polygon3351" />
	</g>
</g>
<g
   id="g3353">
	<g
   id="g3355">
		<path
   fill="#BB0E3D"
   d="M130.854,31h2.495v11.184h-2.495l-5.328-7.008v7.008h-2.496V31h2.336l5.488,7.199V31z"
   id="path3357" />
		<path
   fill="#BB0E3D"
   d="M144.069,42.183l-1.04-2.416h-4.688l-1.04,2.416h-2.656L139.477,31h2.416l4.832,11.184L144.069,42.183    L144.069,42.183z M140.693,34.327l-1.407,3.248h2.8L140.693,34.327z"
   id="path3359" />
		<path
   fill="#BB0E3D"
   d="M151.941,33.159v9.024h-2.495v-9.024h-3.168V31h8.831v2.159H151.941z"
   id="path3361" />
		<path
   fill="#BB0E3D"
   d="M156.933,31h2.496v11.184h-2.496V31z"
   id="path3363" />
		<path
   fill="#BB0E3D"
   d="M171.589,40.639c-1.131,1.104-2.522,1.656-4.176,1.656s-3.046-0.553-4.176-1.656    c-1.131-1.104-1.696-2.478-1.696-4.12s0.565-3.016,1.696-4.12c1.13-1.104,2.522-1.656,4.176-1.656s3.045,0.553,4.176,1.656    c1.131,1.104,1.696,2.478,1.696,4.12S172.72,39.535,171.589,40.639z M170.741,36.527c0-0.997-0.32-1.848-0.96-2.552    c-0.641-0.704-1.427-1.056-2.36-1.056s-1.72,0.352-2.36,1.056s-0.96,1.555-0.96,2.552c0,0.998,0.32,1.846,0.96,2.544    c0.641,0.699,1.427,1.048,2.36,1.048s1.72-0.349,2.36-1.048C170.421,38.373,170.741,37.525,170.741,36.527z"
   id="path3365" />
		<path
   fill="#BB0E3D"
   d="M183.221,31h2.496v11.184h-2.496l-5.328-7.008v7.008h-2.496V31h2.336l5.488,7.199V31z"
   id="path3367" />
		<path
   fill="#BB0E3D"
   d="M196.437,42.183l-1.04-2.416h-4.688l-1.04,2.416h-2.656L191.845,31h2.416l4.832,11.184L196.437,42.183    L196.437,42.183z M193.061,34.327l-1.408,3.248h2.8L193.061,34.327z"
   id="path3369" />
		<path
   fill="#BB0E3D"
   d="M200.389,42.183V31h2.496v8.96h4.768v2.224L200.389,42.183L200.389,42.183z"
   id="path3371" />
		<path
   fill="#BB0E3D"
   d="M218.837,39.975c1.226,0,2.229-0.485,3.008-1.456l1.6,1.648c-1.27,1.429-2.766,2.144-4.488,2.144    s-3.141-0.544-4.256-1.632c-1.114-1.088-1.672-2.461-1.672-4.12c0-1.658,0.568-3.042,1.704-4.152    c1.136-1.108,2.525-1.664,4.168-1.664c1.835,0,3.37,0.699,4.608,2.097l-1.553,1.76c-0.789-0.981-1.771-1.472-2.943-1.472    c-0.939,0-1.742,0.307-2.408,0.92c-0.667,0.613-1,1.439-1,2.479s0.314,1.875,0.944,2.504    C217.178,39.661,217.941,39.975,218.837,39.975z"
   id="path3373" />
		<path
   fill="#BB0E3D"
   d="M233.301,42.183l-1.04-2.416h-4.688l-1.04,2.416h-2.656L228.709,31h2.416l4.832,11.184L233.301,42.183    L233.301,42.183z M229.925,34.327l-1.408,3.248h2.8L229.925,34.327z"
   id="path3375" />
		<path
   fill="#BB0E3D"
   d="M245.077,31h2.495v11.184h-2.495l-5.328-7.008v7.008h-2.496V31h2.336l5.488,7.199V31z"
   id="path3377" />
		<path
   fill="#BB0E3D"
   d="M255.46,39.975c1.227,0,2.229-0.485,3.008-1.456l1.601,1.648c-1.27,1.429-2.766,2.144-4.488,2.144    s-3.142-0.544-4.256-1.632c-1.115-1.088-1.672-2.461-1.672-4.12c0-1.658,0.567-3.042,1.704-4.152    c1.136-1.108,2.524-1.664,4.168-1.664c1.834,0,3.37,0.699,4.607,2.097l-1.552,1.76c-0.79-0.981-1.771-1.472-2.944-1.472    c-0.938,0-1.741,0.307-2.408,0.92c-0.666,0.613-1,1.439-1,2.479s0.315,1.875,0.944,2.504    C253.801,39.661,254.565,39.975,255.46,39.975z"
   id="path3379" />
		<path
   fill="#BB0E3D"
   d="M270.1,31v2.224h-5.567v2.304h5.008v2.128h-5.008v2.32h5.744v2.208h-8.24V31H270.1z"
   id="path3381" />
		<path
   fill="#BB0E3D"
   d="M281.572,34.711c0,1.792-0.71,2.949-2.129,3.472l2.832,4h-3.071l-2.48-3.568h-1.728v3.568H272.5V31h4.24    c1.738,0,2.979,0.293,3.72,0.88S281.572,33.41,281.572,34.711z M278.564,36.04c0.31-0.277,0.464-0.718,0.464-1.32    s-0.159-1.017-0.479-1.24s-0.88-0.336-1.68-0.336h-1.872v3.312h1.823C277.673,36.456,278.254,36.317,278.564,36.04z"
   id="path3383" />
		<path
   fill="#BB0E3D"
   d="M288.357,31h2.496v11.184h-2.496V31z"
   id="path3385" />
		<path
   fill="#BB0E3D"
   d="M301.429,31h2.495v11.184h-2.495l-5.328-7.008v7.008h-2.496V31h2.336l5.488,7.199V31z"
   id="path3387" />
		<path
   fill="#BB0E3D"
   d="M309.292,33.231c-0.24,0.197-0.36,0.459-0.36,0.784s0.146,0.584,0.439,0.776    c0.294,0.191,0.971,0.418,2.032,0.68s1.886,0.653,2.473,1.176c0.586,0.522,0.88,1.285,0.88,2.288s-0.376,1.816-1.128,2.44    s-1.742,0.936-2.969,0.936c-1.771,0-3.365-0.656-4.783-1.968l1.487-1.824c1.205,1.056,2.32,1.584,3.345,1.584    c0.458,0,0.818-0.099,1.079-0.296c0.262-0.197,0.393-0.464,0.393-0.8s-0.139-0.603-0.416-0.8s-0.827-0.397-1.648-0.601    c-1.301-0.309-2.253-0.712-2.855-1.208s-0.904-1.274-0.904-2.336s0.381-1.88,1.145-2.456c0.762-0.576,1.714-0.864,2.855-0.864    c0.747,0,1.493,0.129,2.24,0.385c0.746,0.256,1.397,0.618,1.952,1.088l-1.265,1.824c-0.971-0.736-1.973-1.104-3.008-1.104    C309.859,32.935,309.531,33.034,309.292,33.231z"
   id="path3389" />
		<path
   fill="#BB0E3D"
   d="M321.524,33.159v9.024h-2.496v-9.024h-3.168V31h8.832v2.159H321.524z"
   id="path3391" />
		<path
   fill="#BB0E3D"
   d="M326.515,31h2.496v11.184h-2.496V31z"
   id="path3393" />
		<path
   fill="#BB0E3D"
   d="M336.499,33.159v9.024h-2.496v-9.024h-3.168V31h8.832v2.159H336.499z"
   id="path3395" />
		<path
   fill="#BB0E3D"
   d="M344.45,39.295c0.416,0.518,0.977,0.775,1.681,0.775s1.261-0.258,1.672-0.775    c0.41-0.518,0.616-1.225,0.616-2.12V31h2.495v6.256c0,1.621-0.447,2.866-1.344,3.735c-0.896,0.87-2.043,1.305-3.439,1.305    c-1.397,0-2.547-0.438-3.448-1.312s-1.353-2.117-1.353-3.728V31h2.496v6.176C343.826,38.071,344.034,38.778,344.45,39.295z"
   id="path3397" />
		<path
   fill="#BB0E3D"
   d="M358.242,33.159v9.024h-2.496v-9.024h-3.168V31h8.832v2.159H358.242z"
   id="path3399" />
		<path
   fill="#BB0E3D"
   d="M371.298,31v2.224h-5.568v2.304h5.008v2.128h-5.008v2.32h5.744v2.208h-8.24V31H371.298z"
   id="path3401" />
	</g>
</g>

<path
   inkscape:connector-curvature="0"
   style="fill:#606060"
   d="m 136.4449,59.382121 -3.969,8.022 -1.953,0 -3.948,-8.022 0,9.24 -3.276,0 0,-14.678 4.431,0 3.78,8.063 3.801,-8.063 4.41,0 0,14.679 -3.276,0 0,-9.241 z"
   id="path3478" /><path
   inkscape:connector-curvature="0"
   style="fill:#606060"
   d="m 152.8029,66.985121 c -1.274,1.204 -2.769,1.806 -4.483,1.806 -1.714,0 -3.132,-0.528 -4.252,-1.586 -1.12,-1.057 -1.68,-2.474 -1.68,-4.252 0,-1.778 0.57,-3.192 1.711,-4.242 1.141,-1.05 2.489,-1.575 4.043,-1.575 1.554,0 2.873,0.47 3.958,1.407 1.084,0.938 1.627,2.227 1.627,3.864 l 0,1.68 -8.232,0 c 0.098,0.616 0.42,1.12 0.966,1.512 0.546,0.393 1.162,0.589 1.848,0.589 1.105,0 2.016,-0.371 2.73,-1.113 l 1.764,1.91 z m -3.024,-6.699 c -0.434,-0.364 -0.963,-0.546 -1.585,-0.546 -0.623,0 -1.194,0.188 -1.711,0.566 -0.518,0.378 -0.819,0.89 -0.903,1.533 l 4.956,0 c -0.071,-0.672 -0.323,-1.189 -0.757,-1.553 z"
   id="path3480" /><path
   inkscape:connector-curvature="0"
   style="fill:#606060"
   d="m 159.1449,68.623121 -3.15,0 0,-15.583 3.15,0 0,15.583 z"
   id="path3482" /><path
   inkscape:connector-curvature="0"
   style="fill:#606060"
   d="m 171.7239,68.623121 -2.961,0 0,-1.365 c -0.812,1.022 -1.816,1.533 -3.014,1.533 -1.197,0 -2.202,-0.347 -3.013,-1.039 -0.812,-0.693 -1.218,-1.617 -1.218,-2.772 0,-1.155 0.42,-2.02 1.26,-2.594 0.84,-0.573 1.988,-0.86 3.444,-0.86 l 2.352,0 0,-0.063 c 0,-1.204 -0.637,-1.806 -1.911,-1.806 -0.546,0 -1.124,0.108 -1.732,0.325 -0.609,0.218 -1.124,0.486 -1.543,0.809 l -1.407,-2.037 c 1.483,-1.078 3.178,-1.617 5.082,-1.617 1.372,0 2.492,0.344 3.36,1.029 0.868,0.687 1.302,1.771 1.302,3.255 l 0,7.202 z m -3.171,-4.305 0,-0.546 -1.974,0 c -1.26,0 -1.89,0.392 -1.89,1.176 0,0.406 0.15,0.718 0.451,0.935 0.301,0.217 0.731,0.325 1.292,0.325 0.561,0 1.053,-0.171 1.48,-0.515 0.428,-0.343 0.641,-0.801 0.641,-1.375 z"
   id="path3484" /><path
   inkscape:connector-curvature="0"
   style="fill:#606060"
   d="m 177.7509,62.323121 0,6.3 -3.15,0 0,-11.298 3.15,0 0,1.26 c 0.952,-0.966 2.023,-1.449 3.213,-1.449 1.19,0 2.188,0.42 2.993,1.261 0.805,0.84 1.208,1.96 1.208,3.359 l 0,6.867 -3.15,0 0,-6.384 c 0,-1.736 -0.637,-2.604 -1.911,-2.604 -0.63,0 -1.18,0.228 -1.648,0.683 -0.47,0.454 -0.705,1.123 -0.705,2.005 z"
   id="path3486" /><path
   inkscape:connector-curvature="0"
   style="fill:#606060"
   d="m 199.3179,62.973121 c 0,1.639 -0.567,3.018 -1.701,4.138 -1.134,1.12 -2.559,1.68 -4.273,1.68 -1.714,0 -3.14,-0.56 -4.273,-1.68 -1.133,-1.12 -1.701,-2.499 -1.701,-4.138 0,-1.638 0.567,-3.02 1.701,-4.147 1.134,-1.126 2.559,-1.69 4.273,-1.69 1.714,0 3.14,0.564 4.273,1.69 1.134,1.128 1.701,2.509 1.701,4.147 z m -8.778,0 c 0,0.925 0.262,1.677 0.787,2.258 0.525,0.581 1.197,0.872 2.016,0.872 0.819,0 1.491,-0.291 2.016,-0.872 0.525,-0.581 0.788,-1.333 0.788,-2.258 0,-0.924 -0.263,-1.68 -0.788,-2.268 -0.525,-0.588 -1.197,-0.882 -2.016,-0.882 -0.819,0 -1.491,0.294 -2.016,0.882 -0.525,0.588 -0.787,1.344 -0.787,2.268 z"
   id="path3488" /><path
   inkscape:connector-curvature="0"
   style="fill:#606060"
   d="m 212.0229,62.533121 0,6.09 -3.171,0 0,-6.174 c 0,-0.896 -0.136,-1.554 -0.409,-1.975 -0.273,-0.42 -0.714,-0.63 -1.323,-0.63 -0.609,0 -1.148,0.229 -1.617,0.683 -0.469,0.455 -0.704,1.124 -0.704,2.006 l 0,6.09 -3.15,0 0,-11.298 3.15,0 0,1.281 c 0.868,-0.98 1.862,-1.471 2.982,-1.471 0.714,0 1.361,0.21 1.942,0.63 0.581,0.421 1.019,0.932 1.312,1.533 0.434,-0.686 1.019,-1.218 1.753,-1.596 0.735,-0.378 1.474,-0.567 2.216,-0.567 1.33,0 2.401,0.396 3.213,1.187 0.812,0.791 1.218,1.936 1.218,3.434 l 0,6.867 -3.171,0 0,-6.174 c 0,-1.736 -0.637,-2.604 -1.911,-2.604 -0.63,0 -1.176,0.229 -1.638,0.683 -0.461,0.454 -0.692,1.123 -0.692,2.005 z"
   id="path3490" /><path
   inkscape:connector-curvature="0"
   style="fill:#606060"
   d="m 231.8879,68.623121 -2.961,0 0,-1.365 c -0.812,1.022 -1.816,1.533 -3.014,1.533 -1.197,0 -2.202,-0.347 -3.013,-1.039 -0.812,-0.693 -1.218,-1.617 -1.218,-2.772 0,-1.155 0.42,-2.02 1.26,-2.594 0.84,-0.573 1.988,-0.86 3.444,-0.86 l 2.352,0 0,-0.063 c 0,-1.204 -0.637,-1.806 -1.911,-1.806 -0.546,0 -1.124,0.108 -1.732,0.325 -0.609,0.218 -1.124,0.486 -1.543,0.809 l -1.407,-2.037 c 1.483,-1.078 3.178,-1.617 5.082,-1.617 1.372,0 2.492,0.344 3.36,1.029 0.868,0.687 1.302,1.771 1.302,3.255 l 0,7.202 z m -3.171,-4.305 0,-0.546 -1.974,0 c -1.26,0 -1.89,0.392 -1.89,1.176 0,0.406 0.15,0.718 0.451,0.935 0.301,0.217 0.731,0.325 1.292,0.325 0.561,0 1.053,-0.171 1.48,-0.515 0.428,-0.343 0.641,-0.801 0.641,-1.375 z"
   id="path3492" /><path
   inkscape:connector-curvature="0"
   style="fill:#606060"
   d="m 252.5309,58.816121 c 0,2.352 -0.931,3.871 -2.793,4.557 l 3.717,5.25 -4.032,0 -3.255,-4.683 -2.268,0 0,4.683 -3.276,0 0,-14.679 5.565,0 c 2.282,0 3.909,0.385 4.882,1.154 0.974,0.771 1.46,2.01 1.46,3.718 z m -3.948,1.742 c 0.406,-0.363 0.609,-0.941 0.609,-1.732 0,-0.79 -0.21,-1.333 -0.63,-1.627 -0.42,-0.294 -1.155,-0.441 -2.205,-0.441 l -2.457,0 0,4.348 2.394,0 c 1.12,-0.001 1.883,-0.184 2.289,-0.548 z"
   id="path3494" /><path
   inkscape:connector-curvature="0"
   style="fill:#606060"
   d="m 255.7329,55.886121 c -0.357,-0.357 -0.536,-0.795 -0.536,-1.312 0,-0.517 0.179,-0.956 0.536,-1.312 0.357,-0.357 0.794,-0.536 1.312,-0.536 0.518,0 0.956,0.179 1.312,0.536 0.357,0.356 0.536,0.795 0.536,1.312 0,0.517 -0.179,0.955 -0.536,1.312 -0.357,0.356 -0.794,0.535 -1.312,0.535 -0.518,0 -0.955,-0.178 -1.312,-0.535 z m 2.888,12.737 -3.15,0 0,-11.298 3.15,0 0,11.298 z"
   id="path3496" /><path
   inkscape:connector-curvature="0"
   style="fill:#606060"
   d="m 270.1079,65.105121 c 0,1.113 -0.41,2.006 -1.229,2.678 -0.819,0.672 -1.858,1.008 -3.119,1.008 -0.84,0 -1.715,-0.15 -2.625,-0.451 -0.91,-0.301 -1.729,-0.746 -2.457,-1.334 l 1.386,-1.974 c 1.176,0.91 2.429,1.365 3.759,1.365 0.406,0 0.728,-0.081 0.966,-0.242 0.238,-0.16 0.357,-0.374 0.357,-0.641 0,-0.266 -0.165,-0.511 -0.494,-0.734 -0.329,-0.224 -0.805,-0.434 -1.428,-0.63 -0.623,-0.196 -1.099,-0.364 -1.428,-0.504 -0.329,-0.141 -0.704,-0.344 -1.124,-0.609 -0.854,-0.532 -1.281,-1.319 -1.281,-2.362 0,-1.043 0.42,-1.894 1.26,-2.552 0.84,-0.658 1.925,-0.987 3.255,-0.987 1.33,0 2.66,0.448 3.99,1.345 l -1.176,2.1 c -0.98,-0.672 -1.957,-1.008 -2.929,-1.008 -0.973,0 -1.459,0.266 -1.459,0.798 0,0.294 0.154,0.525 0.462,0.693 0.308,0.168 0.819,0.364 1.533,0.588 0.714,0.224 1.222,0.396 1.522,0.515 0.301,0.118 0.662,0.304 1.082,0.556 0.785,0.475 1.177,1.269 1.177,2.382 z"
   id="path3498" /><path
   inkscape:connector-curvature="0"
   style="fill:#606060"
   d="m 275.6729,68.623121 -3.15,0 0,-15.583 3.15,0 0,8.001 3.507,-3.738 3.969,0 -4.305,4.578 4.473,6.741 -3.738,0 -2.877,-4.326 -1.029,1.071 0,3.256 z"
   id="path3500" /><path
   inkscape:connector-curvature="0"
   style="fill:#606060"
   d="m 301.3339,68.623121 -1.365,-3.171 -6.153,0 -1.365,3.171 -3.486,0 6.342,-14.679 3.171,0 6.342,14.679 -3.486,0 z m -4.431,-10.311 -1.848,4.263 3.675,0 -1.827,-4.263 z"
   id="path3502" /><path
   inkscape:connector-curvature="0"
   style="fill:#606060"
   d="m 314.7109,65.105121 c 0,1.113 -0.41,2.006 -1.229,2.678 -0.819,0.672 -1.858,1.008 -3.119,1.008 -0.84,0 -1.715,-0.15 -2.625,-0.451 -0.91,-0.301 -1.729,-0.746 -2.457,-1.334 l 1.386,-1.974 c 1.176,0.91 2.429,1.365 3.759,1.365 0.406,0 0.728,-0.081 0.966,-0.242 0.238,-0.16 0.357,-0.374 0.357,-0.641 0,-0.266 -0.165,-0.511 -0.494,-0.734 -0.329,-0.224 -0.805,-0.434 -1.428,-0.63 -0.623,-0.196 -1.099,-0.364 -1.428,-0.504 -0.329,-0.141 -0.704,-0.344 -1.124,-0.609 -0.854,-0.532 -1.281,-1.319 -1.281,-2.362 0,-1.043 0.42,-1.894 1.26,-2.552 0.84,-0.658 1.925,-0.987 3.255,-0.987 1.33,0 2.66,0.448 3.99,1.345 l -1.176,2.1 c -0.98,-0.672 -1.957,-1.008 -2.929,-1.008 -0.973,0 -1.459,0.266 -1.459,0.798 0,0.294 0.154,0.525 0.462,0.693 0.308,0.168 0.819,0.364 1.533,0.588 0.714,0.224 1.222,0.396 1.522,0.515 0.301,0.118 0.662,0.304 1.082,0.556 0.785,0.475 1.177,1.269 1.177,2.382 z"
   id="path3504" /><path
   inkscape:connector-curvature="0"
   style="fill:#606060"
   d="m 325.6309,65.105121 c 0,1.113 -0.41,2.006 -1.229,2.678 -0.819,0.672 -1.858,1.008 -3.119,1.008 -0.84,0 -1.715,-0.15 -2.625,-0.451 -0.91,-0.301 -1.729,-0.746 -2.457,-1.334 l 1.386,-1.974 c 1.176,0.91 2.429,1.365 3.759,1.365 0.406,0 0.728,-0.081 0.966,-0.242 0.238,-0.16 0.357,-0.374 0.357,-0.641 0,-0.266 -0.165,-0.511 -0.494,-0.734 -0.329,-0.224 -0.805,-0.434 -1.428,-0.63 -0.623,-0.196 -1.099,-0.364 -1.428,-0.504 -0.329,-0.141 -0.704,-0.344 -1.124,-0.609 -0.854,-0.532 -1.281,-1.319 -1.281,-2.362 0,-1.043 0.42,-1.894 1.26,-2.552 0.84,-0.658 1.925,-0.987 3.255,-0.987 1.33,0 2.66,0.448 3.99,1.345 l -1.176,2.1 c -0.98,-0.672 -1.957,-1.008 -2.929,-1.008 -0.973,0 -1.459,0.266 -1.459,0.798 0,0.294 0.154,0.525 0.462,0.693 0.308,0.168 0.819,0.364 1.533,0.588 0.714,0.224 1.222,0.396 1.522,0.515 0.301,0.118 0.662,0.304 1.082,0.556 0.785,0.475 1.177,1.269 1.177,2.382 z"
   id="path3506" /><path
   inkscape:connector-curvature="0"
   style="fill:#606060"
   d="m 337.8309,66.985121 c -1.274,1.204 -2.769,1.806 -4.483,1.806 -1.714,0 -3.132,-0.528 -4.252,-1.586 -1.12,-1.057 -1.68,-2.474 -1.68,-4.252 0,-1.778 0.57,-3.192 1.711,-4.242 1.141,-1.05 2.489,-1.575 4.043,-1.575 1.554,0 2.873,0.47 3.958,1.407 1.084,0.938 1.627,2.227 1.627,3.864 l 0,1.68 -8.232,0 c 0.098,0.616 0.42,1.12 0.966,1.512 0.546,0.393 1.162,0.589 1.848,0.589 1.105,0 2.016,-0.371 2.73,-1.113 l 1.764,1.91 z m -3.024,-6.699 c -0.434,-0.364 -0.963,-0.546 -1.585,-0.546 -0.623,0 -1.194,0.188 -1.711,0.566 -0.518,0.378 -0.819,0.89 -0.903,1.533 l 4.956,0 c -0.071,-0.672 -0.323,-1.189 -0.757,-1.553 z"
   id="path3508" /><path
   inkscape:connector-curvature="0"
   style="fill:#606060"
   d="m 349.5289,65.105121 c 0,1.113 -0.41,2.006 -1.229,2.678 -0.819,0.672 -1.858,1.008 -3.119,1.008 -0.84,0 -1.715,-0.15 -2.625,-0.451 -0.91,-0.301 -1.729,-0.746 -2.457,-1.334 l 1.386,-1.974 c 1.176,0.91 2.429,1.365 3.759,1.365 0.406,0 0.728,-0.081 0.966,-0.242 0.238,-0.16 0.357,-0.374 0.357,-0.641 0,-0.266 -0.165,-0.511 -0.494,-0.734 -0.329,-0.224 -0.805,-0.434 -1.428,-0.63 -0.623,-0.196 -1.099,-0.364 -1.428,-0.504 -0.329,-0.141 -0.704,-0.344 -1.124,-0.609 -0.854,-0.532 -1.281,-1.319 -1.281,-2.362 0,-1.043 0.42,-1.894 1.26,-2.552 0.84,-0.658 1.925,-0.987 3.255,-0.987 1.33,0 2.66,0.448 3.99,1.345 l -1.176,2.1 c -0.98,-0.672 -1.957,-1.008 -2.929,-1.008 -0.973,0 -1.459,0.266 -1.459,0.798 0,0.294 0.154,0.525 0.462,0.693 0.308,0.168 0.819,0.364 1.533,0.588 0.714,0.224 1.222,0.396 1.522,0.515 0.301,0.118 0.662,0.304 1.082,0.556 0.784,0.475 1.177,1.269 1.177,2.382 z"
   id="path3510" /><path
   inkscape:connector-curvature="0"
   style="fill:#606060"
   d="m 360.4479,65.105121 c 0,1.113 -0.41,2.006 -1.229,2.678 -0.819,0.672 -1.858,1.008 -3.119,1.008 -0.84,0 -1.715,-0.15 -2.625,-0.451 -0.91,-0.301 -1.729,-0.746 -2.457,-1.334 l 1.386,-1.974 c 1.176,0.91 2.429,1.365 3.759,1.365 0.406,0 0.728,-0.081 0.966,-0.242 0.238,-0.16 0.357,-0.374 0.357,-0.641 0,-0.266 -0.165,-0.511 -0.494,-0.734 -0.329,-0.224 -0.805,-0.434 -1.428,-0.63 -0.623,-0.196 -1.099,-0.364 -1.428,-0.504 -0.329,-0.141 -0.704,-0.344 -1.124,-0.609 -0.854,-0.532 -1.281,-1.319 -1.281,-2.362 0,-1.043 0.42,-1.894 1.26,-2.552 0.84,-0.658 1.925,-0.987 3.255,-0.987 1.33,0 2.66,0.448 3.99,1.345 l -1.176,2.1 c -0.98,-0.672 -1.957,-1.008 -2.929,-1.008 -0.973,0 -1.459,0.266 -1.459,0.798 0,0.294 0.154,0.525 0.462,0.693 0.308,0.168 0.819,0.364 1.533,0.588 0.714,0.224 1.222,0.396 1.522,0.515 0.301,0.118 0.662,0.304 1.082,0.556 0.785,0.475 1.177,1.269 1.177,2.382 z"
   id="path3512" /><path
   inkscape:connector-curvature="0"
   style="fill:#606060"
   d="m 373.2369,62.533121 0,6.09 -3.171,0 0,-6.174 c 0,-0.896 -0.136,-1.554 -0.409,-1.975 -0.273,-0.42 -0.714,-0.63 -1.323,-0.63 -0.609,0 -1.148,0.229 -1.617,0.683 -0.469,0.455 -0.704,1.124 -0.704,2.006 l 0,6.09 -3.15,0 0,-11.298 3.15,0 0,1.281 c 0.868,-0.98 1.862,-1.471 2.982,-1.471 0.714,0 1.361,0.21 1.942,0.63 0.581,0.421 1.019,0.932 1.312,1.533 0.434,-0.686 1.019,-1.218 1.753,-1.596 0.735,-0.378 1.474,-0.567 2.216,-0.567 1.33,0 2.401,0.396 3.213,1.187 0.812,0.791 1.218,1.936 1.218,3.434 l 0,6.867 -3.171,0 0,-6.174 c 0,-1.736 -0.637,-2.604 -1.911,-2.604 -0.63,0 -1.176,0.229 -1.638,0.683 -0.461,0.454 -0.692,1.123 -0.692,2.005 z"
   id="path3514" /><path
   inkscape:connector-curvature="0"
   style="fill:#606060"
   d="m 393.2919,66.985121 c -1.274,1.204 -2.769,1.806 -4.484,1.806 -1.715,0 -3.132,-0.528 -4.252,-1.586 -1.12,-1.057 -1.68,-2.474 -1.68,-4.252 0,-1.778 0.57,-3.192 1.711,-4.242 1.141,-1.05 2.489,-1.575 4.043,-1.575 1.554,0 2.873,0.47 3.958,1.407 1.084,0.938 1.627,2.227 1.627,3.864 l 0,1.68 -8.232,0 c 0.098,0.616 0.42,1.12 0.966,1.512 0.546,0.393 1.162,0.589 1.848,0.589 1.105,0 2.016,-0.371 2.73,-1.113 l 1.765,1.91 z m -3.024,-6.699 c -0.434,-0.364 -0.963,-0.546 -1.585,-0.546 -0.623,0 -1.194,0.188 -1.711,0.566 -0.518,0.378 -0.819,0.89 -0.903,1.533 l 4.956,0 c -0.071,-0.672 -0.323,-1.189 -0.757,-1.553 z"
   id="path3516" /><path
   inkscape:connector-curvature="0"
   style="fill:#606060"
   d="m 399.6329,62.323121 0,6.3 -3.149,0 0,-11.298 3.149,0 0,1.26 c 0.952,-0.966 2.023,-1.449 3.213,-1.449 1.19,0 2.188,0.42 2.993,1.261 0.805,0.84 1.207,1.96 1.207,3.359 l 0,6.867 -3.149,0 0,-6.384 c 0,-1.736 -0.638,-2.604 -1.911,-2.604 -0.63,0 -1.18,0.228 -1.648,0.683 -0.471,0.454 -0.705,1.123 -0.705,2.005 z"
   id="path3518" /><path
   inkscape:connector-curvature="0"
   style="fill:#606060"
   d="m 413.4929,59.592121 0,5.062 c 0,0.434 0.112,0.773 0.336,1.019 0.224,0.246 0.49,0.367 0.798,0.367 0.588,0 1.085,-0.266 1.491,-0.798 l 1.176,2.205 c -0.979,0.896 -2.013,1.344 -3.098,1.344 -1.085,0 -2.002,-0.357 -2.751,-1.071 -0.749,-0.714 -1.123,-1.687 -1.123,-2.919 l 0,-5.209 -1.323,0 0,-2.268 1.323,0 0,-3.381 3.171,0 0,3.381 2.73,0 0,2.268 -2.73,0 z"
   id="path3520" /><path
   inkscape:connector-curvature="0"
   style="fill:#606060"
   d="m 431.0489,56.779121 0,11.844 -3.276,0 0,-11.844 -4.158,0 0,-2.835 11.592,0 0,2.835 -4.158,0 z"
   id="path3522" /><path
   inkscape:connector-curvature="0"
   style="fill:#606060"
   d="m 447.3229,62.973121 c 0,1.639 -0.567,3.018 -1.701,4.138 -1.134,1.12 -2.559,1.68 -4.273,1.68 -1.714,0 -3.14,-0.56 -4.273,-1.68 -1.133,-1.12 -1.701,-2.499 -1.701,-4.138 0,-1.638 0.567,-3.02 1.701,-4.147 1.134,-1.126 2.559,-1.69 4.273,-1.69 1.714,0 3.14,0.564 4.273,1.69 1.134,1.128 1.701,2.509 1.701,4.147 z m -8.778,0 c 0,0.925 0.263,1.677 0.788,2.258 0.524,0.581 1.196,0.872 2.016,0.872 0.82,0 1.491,-0.291 2.016,-0.872 0.525,-0.581 0.788,-1.333 0.788,-2.258 0,-0.924 -0.263,-1.68 -0.788,-2.268 -0.524,-0.588 -1.196,-0.882 -2.016,-0.882 -0.82,0 -1.491,0.294 -2.016,0.882 -0.525,0.588 -0.788,1.344 -0.788,2.268 z"
   id="path3524" /><path
   inkscape:connector-curvature="0"
   style="fill:#606060"
   d="m 460.9519,62.973121 c 0,1.639 -0.567,3.018 -1.701,4.138 -1.134,1.12 -2.559,1.68 -4.273,1.68 -1.714,0 -3.14,-0.56 -4.273,-1.68 -1.133,-1.12 -1.701,-2.499 -1.701,-4.138 0,-1.638 0.567,-3.02 1.701,-4.147 1.134,-1.126 2.559,-1.69 4.273,-1.69 1.714,0 3.14,0.564 4.273,1.69 1.134,1.128 1.701,2.509 1.701,4.147 z m -8.778,0 c 0,0.925 0.263,1.677 0.788,2.258 0.524,0.581 1.196,0.872 2.016,0.872 0.82,0 1.491,-0.291 2.016,-0.872 0.525,-0.581 0.788,-1.333 0.788,-2.258 0,-0.924 -0.263,-1.68 -0.788,-2.268 -0.524,-0.588 -1.196,-0.882 -2.016,-0.882 -0.82,0 -1.491,0.294 -2.016,0.882 -0.525,0.588 -0.788,1.344 -0.788,2.268 z"
   id="path3526" /><path
   inkscape:connector-curvature="0"
   style="fill:#606060"
   d="m 466.4329,68.623121 -3.149,0 0,-15.583 3.149,0 0,15.583 z"
   id="path3528" /></svg>